<svg width="18" height="18" fill="none" xmlns="http://www.w3.org/2000/svg"><path d="M3.566 1.85a.868.868 0 0 1 1.022-.154c.969.513 2.132 2.473 2.162 2.524.134.234.184.477.136.652a.4.4 0 0 1-.203.248L3.99 9.65C2.722 8.383 1.949 7.175 1.69 6.06m1.875-4.21-.752.752C1.763 3.653 1.396 4.783 1.69 6.06m1.875-4.21.177.178m-.177-.177.6 7.623M1.69 6.059l.243-.056c-.272-1.18.057-2.224 1.056-3.224l-.176-.177.176.177m-1.3 3.28.244-.056c.243 1.05.98 2.22 2.231 3.47m0 0 4.362 4.362c1.348 1.347 2.578 2.087 3.68 2.27 1.086.181 2.087-.169 3.014-1.095l.753-.753a.615.615 0 0 0 .11-.728c-.111-.209-.31-.444-.563-.684a8.649 8.649 0 0 0-.816-.676 13.729 13.729 0 0 0-1.054-.705c-.197-.111-.369-.131-.456-.108-.036.01-.066.03-.097.084l-.005.01-.007.01-.03.044-.007.01-.007.008c-.107.128-.29.344-.47.545-.09.1-.18.2-.262.281a1.73 1.73 0 0 1-.228.202 3.322 3.322 0 0 1-.19.12c.314.106.66.189 1.03.227a.547.547 0 0 1-.109 1.088h-.004c-2.132-.222-3.522-1.57-3.59-1.638l-.002-.001a.355.355 0 0 1-.05-.063.728.728 0 0 1-.021-.021L6.023 9.139a.295.295 0 0 1-.028-.02l-.003-.002c-.075-.062-1.75-1.46-1.976-3.628a.547.547 0 0 1 .487-.6l.007-.002a.55.55 0 0 1 .594.488c.03.288.094.56.181.815.05-.09.104-.181.166-.272.046-.069.124-.15.202-.228.082-.081.18-.172.28-.262.202-.18.418-.363.546-.47l.008-.006.01-.007.044-.03.01-.007.01-.006c.055-.031.074-.061.084-.097.024-.085.005-.256-.11-.459a13.724 13.724 0 0 0-.704-1.052 8.655 8.655 0 0 0-.675-.815c-.24-.252-.475-.451-.685-.562a.619.619 0 0 0-.728.11m.422 7.446L2.99 2.779m.753-.752-.753.752m.753-.752-.753.752m11.21 7.74-.002-.002c-.42-.24-.882-.33-1.295-.215-.308.085-.56.279-.729.553-.146.175-.309.363-.446.515a8.017 8.017 0 0 1-.244.26l-.021.019c-.321.216-.576.288-.798.266-.225-.022-.465-.146-.746-.427L6.512 8.081c-.28-.28-.405-.521-.427-.746-.022-.222.05-.476.266-.797a7.737 7.737 0 0 1 .279-.266c.153-.137.34-.3.515-.446.275-.17.468-.421.554-.73.114-.413.024-.873-.217-1.297l-.002-.002a13.977 13.977 0 0 0-.812-1.21C6.215 1.986 5.6 1.278 4.983.952a1.706 1.706 0 0 0-2.012.302l-.754.753C.974 3.249.507 4.684.87 6.249c.298 1.29 1.16 2.633 2.523 3.997l4.362 4.362c1.73 1.729 3.42 2.64 5.011 2.64 1.176 0 2.262-.498 3.23-1.465l.752-.753a1.706 1.706 0 0 0 .303-2.013c-.327-.616-1.035-1.232-1.638-1.685a14.05 14.05 0 0 0-1.212-.814Z" fill="#273B39" stroke="#273B39" stroke-width=".5"/></svg>