<svg width="22" height="22" viewBox="0 0 22 22" fill="none" xmlns="http://www.w3.org/2000/svg">
<path d="M11 0.9C5.43074 0.9 0.9 5.43074 0.9 11C0.9 16.5693 5.43074 21.1 11 21.1C16.5693 21.1 21.1 16.5693 21.1 11C21.1 5.43074 16.5693 0.9 11 0.9ZM11 19.7559C6.17206 19.7559 2.24412 15.8279 2.24412 11C2.24412 6.17212 6.17206 2.24412 11 2.24412C15.8279 2.24412 19.7559 6.17212 19.7559 11C19.7559 15.8279 15.8279 19.7559 11 19.7559Z" fill="#273B39" stroke="#273B39" stroke-width="0.2"/>
<path d="M13.4484 5.52832H12.0399C10.887 5.52832 9.94907 6.3841 9.94907 7.43597V8.88175H8.63683C8.30862 8.88175 8.0426 9.12446 8.0426 9.42392C8.0426 9.72338 8.30862 9.96609 8.63683 9.96609H9.94907V14.9862C9.94907 15.2856 10.2151 15.5283 10.5433 15.5283C10.8715 15.5283 11.1375 15.2856 11.1375 14.9862V9.96609H13.1678C13.496 9.96609 13.762 9.72338 13.762 9.42392C13.762 9.12446 13.496 8.88175 13.1678 8.88175H11.1375V7.43597C11.1375 6.982 11.5423 6.61266 12.0399 6.61266H13.4484C13.7766 6.61266 14.0426 6.36995 14.0426 6.07049C14.0426 5.77103 13.7766 5.52832 13.4484 5.52832Z" fill="#273B39"/>
</svg>
