<svg width="86" height="53" fill="none" xmlns="http://www.w3.org/2000/svg"><mask id="a" fill="#fff"><path fill-rule="evenodd" clip-rule="evenodd" d="M22.904.092c-2.534.387-4.369 1.67-5.38 3.765-.804 1.666-1.054 3.149-1.054 6.254v1.984l-3.118.07c-3.334.077-4.078.168-5.262.642-2.332.935-3.752 2.83-4.347 5.805-.126.63-.181 1.574-.217 3.703l-.047 2.857H1.9c-1.301 0-1.605.027-1.735.159-.191.194-.173-.272-.157 3.986.012 3.125.034 3.613.172 3.767.14.156.361.178 1.79.178H3.6l.011 1.997c.08 14.047.14 17.413.308 17.584.155.157.516.17 4.09.15 3.72-.022 3.93-.033 4.116-.218.189-.188.194-.35.174-5.075-.012-2.685-.05-7.055-.085-9.71l-.064-4.83h4.319v3.373c0 3.138.012 3.384.182 3.54.163.15.594.167 4.084.167h3.902l.156-.225c.138-.2.155-1.294.155-9.759v-9.534h2.287c1.882 0 2.313-.026 2.434-.149.177-.178.188-.266.57-4.238.275-2.852.288-3.143.146-3.362l-.155-.24h-5.3l.035-1.896c.055-2.858-.021-2.787 3.025-2.837 1.737-.029 2.125-.062 2.27-.195.16-.146.175-.46.175-3.785 0-3.49-.008-3.632-.2-3.827-.192-.194-.324-.201-3.516-.19-1.825.008-3.542.048-3.816.09Zm6.235 3.944v2.73h-1.71c-1.88 0-2.283.076-2.826.53-.77.643-.949 1.449-.95 4.277 0 1.579.027 1.964.154 2.149.154.222.182.225 2.744.225h2.588v.278c0 .153-.113 1.393-.25 2.755a646.22 646.22 0 0 0-.249 2.503c0 .014-1.052.026-2.339.026-2.303 0-2.34.003-2.494.224-.137.2-.155 1.289-.155 9.709v9.483h-5.886V35.61c0-2.904-.02-3.344-.163-3.55l-.163-.237-3.089.039-3.09.038-.188.237c-.18.226-.187.43-.14 4.75.027 2.484.072 6.818.1 9.632l.05 5.117-2.958.07c-1.627.04-2.992.036-3.033-.009-.042-.044-.108-4.4-.148-9.68l-.073-9.6-.247-.25-.246-.25-1.524.063-1.524.064-.074-2.733c-.04-1.503-.042-2.765-.003-2.804.039-.04.782-.087 1.652-.107 1.312-.03 1.607-.064 1.729-.202.121-.137.155-.754.194-3.504.048-3.479.09-3.866.561-5.242.666-1.944 1.98-3.148 4.064-3.726.714-.197 1.093-.22 4.348-.26l3.567-.044.2-.257c.186-.241.198-.411.198-2.809 0-3.365.183-4.498.973-6.042.614-1.2 1.468-1.983 2.718-2.49 1.072-.436 1.683-.502 4.764-.51l2.918-.008v2.73Zm9.876 6.633c-.89.24-1.61.649-2.197 1.249-1.039 1.062-1.54 2.474-1.66 4.683l-.065 1.188H33.13V19.812h1.995v12.742h2.694V19.812h3.491V17.789h-3.491l.001-.986c.003-1.668.327-2.767 1.012-3.433.617-.599 1.468-.816 2.483-.633 1.11.2 1.008.269 1.202-.813.095-.528.14-.995.1-1.038-.147-.156-1.48-.374-2.255-.37-.439.003-1.045.072-1.346.153Zm33.368.002c-1.47.308-2.81 1.205-3.6 2.41-.626.955-1.035 2.623-1.038 4.228v.48h-1.996V19.812h1.996v12.742h2.693V19.812h5.886v12.742h2.593V17.789H70.41l.056-1.137c.076-1.569.321-2.266 1.063-3.018.614-.623 1.123-.849 2.151-.953.77-.079 2.042.15 2.836.512.335.153.625.26.644.238.02-.023.194-.473.388-1.001l.352-.961-.264-.169c-1.074-.685-3.56-.983-5.253-.63Zm-12.02 11.012v10.871h2.693V10.812h-2.694v10.87Zm22.944 0v10.871H86V10.812h-2.693v10.87Zm-39.704.61c0 2.526.047 4.936.107 5.487.254 2.331 1.141 3.836 2.724 4.623 2.186 1.086 5.048.411 6.596-1.556l.5-.633.067.437c.037.24.07.767.075 1.17l.007.733h2.424l-.065-.834c-.035-.46-.064-3.781-.064-7.383V17.79H53.286l-.029 5.031-.028 5.032-.284.586c-.364.75-1.147 1.544-1.855 1.88-.438.206-.744.27-1.452.297-.856.033-.928.02-1.538-.302-.755-.399-1.185-.96-1.525-1.99-.216-.653-.224-.823-.257-5.604l-.034-4.93H43.603v4.505ZM13.624 19c-1.168.076-1.775.319-2.197.879-.491.653-.556 1.082-.549 3.644.004 1.29.031 2.41.062 2.49.13.342.496.375 3.514.31 2.446-.054 2.994-.092 3.138-.219.16-.14.174-.433.174-3.38 0-3.19-.03-3.535-.339-3.744-.127-.086-2.351-.075-3.803.02Zm2.846 3.647v2.428l-2.17-.027-2.17-.027-.028-1.504c-.044-2.427.151-3.004 1.08-3.189.244-.049 1.084-.093 1.866-.1l1.422-.01v2.429Zm31.822 14.122v1.484l-.224-.207c-.389-.358-.705-.47-1.322-.47-1.35.001-2.183.995-2.19 2.614-.007 1.475.688 2.424 1.865 2.547.692.073 1.188-.091 1.628-.538l.343-.347v.816h.798v-7.383h-.898v1.484Zm20.969-.958c-.066.067-.12.263-.12.435 0 .384.156.556.503.556.498 0 .778-.608.438-.953-.186-.188-.652-.21-.821-.038Zm-2.838.506-.374.101v1.193h-.4c-.389 0-.398.009-.398.354 0 .346.01.354.399.354h.399v1.73c0 1.92.09 2.302.607 2.573.284.149 1.041.198 1.33.085.099-.038.158-.183.158-.389 0-.322-.007-.327-.457-.317-.704.015-.74-.084-.74-2.032v-1.65H68.255l-.031-.328c-.032-.33-.032-.33-.655-.36l-.623-.03v-.702c0-.387-.034-.699-.075-.693a7.678 7.678 0 0 0-.45.111ZM41.159 37.6c-1.148.302-1.745 1.198-1.745 2.62 0 1.325.557 2.162 1.636 2.46.454.125 1.754.066 2.172-.099.233-.091.257-.141.19-.388-.06-.227-.124-.277-.316-.248-.132.02-.608.043-1.056.05-.688.013-.86-.018-1.098-.197-.332-.252-.584-.67-.678-1.127l-.068-.33h3.53l-.038-.682c-.047-.84-.31-1.392-.842-1.766-.424-.298-1.172-.428-1.687-.293Zm16.705.042c-.963.275-1.566.89-1.801 1.84-.23.928.045 2.102.624 2.648.61.578 1.708.788 2.739.525.434-.112.446-.125.381-.43-.036-.174-.082-.333-.102-.355-.02-.022-.237.018-.483.088-1.336.38-2.483-.618-2.32-2.016.124-1.066.625-1.546 1.675-1.606.37-.021.753.011.869.074.232.126.267.092.361-.356.058-.275.036-.325-.167-.376-.552-.141-1.352-.157-1.776-.036Zm3.796.025c-.667.189-.743.259-.657.605.055.224.105.258.287.2 1.334-.433 2.008-.23 2.217.665.06.258.052.263-.762.38-1.465.21-2.085.69-2.157 1.675-.047.637.192 1.128.678 1.392.619.336 1.615.178 2.163-.343l.225-.215v.32c0 .308.018.322.4.322h.399l-.003-1.644c-.002-1.769-.09-2.369-.408-2.823-.417-.593-1.396-.812-2.382-.534Zm11.354-.02c-.66.186-1.121.582-1.432 1.226-.22.455-.268.696-.268 1.325 0 1.477.777 2.42 2.093 2.542 1.052.096 1.9-.336 2.38-1.214.253-.465.287-.627.287-1.386 0-.962-.159-1.41-.685-1.943-.56-.568-1.525-.791-2.375-.55Zm6.452-.092a3.905 3.905 0 0 1-.377.1c-.152.035-.455.226-.673.426l-.397.363v-.833h-.798v5.057h.898v-1.492c.001-1.764.081-2.123.567-2.556.326-.29.413-.319.847-.276.935.09 1.079.454 1.08 2.731v1.593h.898v-1.694c-.001-2.19-.181-2.835-.895-3.21-.29-.152-.974-.276-1.15-.209Zm-28.78 1.95c0 1.778.015 1.936.225 2.352.292.579.643.828 1.252.887.613.06 1.114-.1 1.523-.488.172-.163.33-.296.353-.296.021 0 .039.16.039.354 0 .345.01.354.4.354h.401l-.026-2.503-.027-2.503-.424-.031-.424-.031v1.548c0 .852-.044 1.704-.097 1.893-.212.748-.977 1.16-1.637.88-.554-.235-.605-.423-.66-2.439l-.05-1.82-.424-.031-.424-.031v1.906Zm18.555.635v2.528h.898V37.61h-.898v2.529ZM42.419 38.48c.21.192.33.437.446.905l.062.248h-2.705l.111-.329c.273-.809.675-1.11 1.401-1.053.282.023.56.116.685.23Zm5.232.004c.416.277.574.65.62 1.46.077 1.334-.415 2.065-1.389 2.065-.896 0-1.436-.708-1.425-1.87.007-.7.16-1.111.556-1.486.476-.45 1.115-.516 1.638-.169Zm26.64-.102c.21.1.448.345.61.626.527.911.27 2.377-.502 2.853-.38.236-.968.257-1.363.05-.596-.313-.96-1.33-.795-2.222.108-.586.32-.92.79-1.244.39-.27.79-.29 1.26-.063ZM63.535 40.76c-.04.56-.08.655-.41.96-.299.28-.444.34-.808.34-.36 0-.482-.05-.65-.267a1.034 1.034 0 0 1-.098-1.063c.161-.306.864-.587 1.475-.59l.536-.002-.045.622Z"/></mask><path fill-rule="evenodd" clip-rule="evenodd" d="M22.904.092c-2.534.387-4.369 1.67-5.38 3.765-.804 1.666-1.054 3.149-1.054 6.254v1.984l-3.118.07c-3.334.077-4.078.168-5.262.642-2.332.935-3.752 2.83-4.347 5.805-.126.63-.181 1.574-.217 3.703l-.047 2.857H1.9c-1.301 0-1.605.027-1.735.159-.191.194-.173-.272-.157 3.986.012 3.125.034 3.613.172 3.767.14.156.361.178 1.79.178H3.6l.011 1.997c.08 14.047.14 17.413.308 17.584.155.157.516.17 4.09.15 3.72-.022 3.93-.033 4.116-.218.189-.188.194-.35.174-5.075-.012-2.685-.05-7.055-.085-9.71l-.064-4.83h4.319v3.373c0 3.138.012 3.384.182 3.54.163.15.594.167 4.084.167h3.902l.156-.225c.138-.2.155-1.294.155-9.759v-9.534h2.287c1.882 0 2.313-.026 2.434-.149.177-.178.188-.266.57-4.238.275-2.852.288-3.143.146-3.362l-.155-.24h-5.3l.035-1.896c.055-2.858-.021-2.787 3.025-2.837 1.737-.029 2.125-.062 2.27-.195.16-.146.175-.46.175-3.785 0-3.49-.008-3.632-.2-3.827-.192-.194-.324-.201-3.516-.19-1.825.008-3.542.048-3.816.09Zm6.235 3.944v2.73h-1.71c-1.88 0-2.283.076-2.826.53-.77.643-.949 1.449-.95 4.277 0 1.579.027 1.964.154 2.149.154.222.182.225 2.744.225h2.588v.278c0 .153-.113 1.393-.25 2.755a646.22 646.22 0 0 0-.249 2.503c0 .014-1.052.026-2.339.026-2.303 0-2.34.003-2.494.224-.137.2-.155 1.289-.155 9.709v9.483h-5.886V35.61c0-2.904-.02-3.344-.163-3.55l-.163-.237-3.089.039-3.09.038-.188.237c-.18.226-.187.43-.14 4.75.027 2.484.072 6.818.1 9.632l.05 5.117-2.958.07c-1.627.04-2.992.036-3.033-.009-.042-.044-.108-4.4-.148-9.68l-.073-9.6-.247-.25-.246-.25-1.524.063-1.524.064-.074-2.733c-.04-1.503-.042-2.765-.003-2.804.039-.04.782-.087 1.652-.107 1.312-.03 1.607-.064 1.729-.202.121-.137.155-.754.194-3.504.048-3.479.09-3.866.561-5.242.666-1.944 1.98-3.148 4.064-3.726.714-.197 1.093-.22 4.348-.26l3.567-.044.2-.257c.186-.241.198-.411.198-2.809 0-3.365.183-4.498.973-6.042.614-1.2 1.468-1.983 2.718-2.49 1.072-.436 1.683-.502 4.764-.51l2.918-.008v2.73Zm9.876 6.633c-.89.24-1.61.649-2.197 1.249-1.039 1.062-1.54 2.474-1.66 4.683l-.065 1.188H33.13V19.812h1.995v12.742h2.694V19.812h3.491V17.789h-3.491l.001-.986c.003-1.668.327-2.767 1.012-3.433.617-.599 1.468-.816 2.483-.633 1.11.2 1.008.269 1.202-.813.095-.528.14-.995.1-1.038-.147-.156-1.48-.374-2.255-.37-.439.003-1.045.072-1.346.153Zm33.368.002c-1.47.308-2.81 1.205-3.6 2.41-.626.955-1.035 2.623-1.038 4.228v.48h-1.996V19.812h1.996v12.742h2.693V19.812h5.886v12.742h2.593V17.789H70.41l.056-1.137c.076-1.569.321-2.266 1.063-3.018.614-.623 1.123-.849 2.151-.953.77-.079 2.042.15 2.836.512.335.153.625.26.644.238.02-.023.194-.473.388-1.001l.352-.961-.264-.169c-1.074-.685-3.56-.983-5.253-.63Zm-12.02 11.012v10.871h2.693V10.812h-2.694v10.87Zm22.944 0v10.871H86V10.812h-2.693v10.87Zm-39.704.61c0 2.526.047 4.936.107 5.487.254 2.331 1.141 3.836 2.724 4.623 2.186 1.086 5.048.411 6.596-1.556l.5-.633.067.437c.037.24.07.767.075 1.17l.007.733h2.424l-.065-.834c-.035-.46-.064-3.781-.064-7.383V17.79H53.286l-.029 5.031-.028 5.032-.284.586c-.364.75-1.147 1.544-1.855 1.88-.438.206-.744.27-1.452.297-.856.033-.928.02-1.538-.302-.755-.399-1.185-.96-1.525-1.99-.216-.653-.224-.823-.257-5.604l-.034-4.93H43.603v4.505ZM13.624 19c-1.168.076-1.775.319-2.197.879-.491.653-.556 1.082-.549 3.644.004 1.29.031 2.41.062 2.49.13.342.496.375 3.514.31 2.446-.054 2.994-.092 3.138-.219.16-.14.174-.433.174-3.38 0-3.19-.03-3.535-.339-3.744-.127-.086-2.351-.075-3.803.02Zm2.846 3.647v2.428l-2.17-.027-2.17-.027-.028-1.504c-.044-2.427.151-3.004 1.08-3.189.244-.049 1.084-.093 1.866-.1l1.422-.01v2.429Zm31.822 14.122v1.484l-.224-.207c-.389-.358-.705-.47-1.322-.47-1.35.001-2.183.995-2.19 2.614-.007 1.475.688 2.424 1.865 2.547.692.073 1.188-.091 1.628-.538l.343-.347v.816h.798v-7.383h-.898v1.484Zm20.969-.958c-.066.067-.12.263-.12.435 0 .384.156.556.503.556.498 0 .778-.608.438-.953-.186-.188-.652-.21-.821-.038Zm-2.838.506-.374.101v1.193h-.4c-.389 0-.398.009-.398.354 0 .346.01.354.399.354h.399v1.73c0 1.92.09 2.302.607 2.573.284.149 1.041.198 1.33.085.099-.038.158-.183.158-.389 0-.322-.007-.327-.457-.317-.704.015-.74-.084-.74-2.032v-1.65H68.255l-.031-.328c-.032-.33-.032-.33-.655-.36l-.623-.03v-.702c0-.387-.034-.699-.075-.693a7.678 7.678 0 0 0-.45.111ZM41.159 37.6c-1.148.302-1.745 1.198-1.745 2.62 0 1.325.557 2.162 1.636 2.46.454.125 1.754.066 2.172-.099.233-.091.257-.141.19-.388-.06-.227-.124-.277-.316-.248-.132.02-.608.043-1.056.05-.688.013-.86-.018-1.098-.197-.332-.252-.584-.67-.678-1.127l-.068-.33h3.53l-.038-.682c-.047-.84-.31-1.392-.842-1.766-.424-.298-1.172-.428-1.687-.293Zm16.705.042c-.963.275-1.566.89-1.801 1.84-.23.928.045 2.102.624 2.648.61.578 1.708.788 2.739.525.434-.112.446-.125.381-.43-.036-.174-.082-.333-.102-.355-.02-.022-.237.018-.483.088-1.336.38-2.483-.618-2.32-2.016.124-1.066.625-1.546 1.675-1.606.37-.021.753.011.869.074.232.126.267.092.361-.356.058-.275.036-.325-.167-.376-.552-.141-1.352-.157-1.776-.036Zm3.796.025c-.667.189-.743.259-.657.605.055.224.105.258.287.2 1.334-.433 2.008-.23 2.217.665.06.258.052.263-.762.38-1.465.21-2.085.69-2.157 1.675-.047.637.192 1.128.678 1.392.619.336 1.615.178 2.163-.343l.225-.215v.32c0 .308.018.322.4.322h.399l-.003-1.644c-.002-1.769-.09-2.369-.408-2.823-.417-.593-1.396-.812-2.382-.534Zm11.354-.02c-.66.186-1.121.582-1.432 1.226-.22.455-.268.696-.268 1.325 0 1.477.777 2.42 2.093 2.542 1.052.096 1.9-.336 2.38-1.214.253-.465.287-.627.287-1.386 0-.962-.159-1.41-.685-1.943-.56-.568-1.525-.791-2.375-.55Zm6.452-.092a3.905 3.905 0 0 1-.377.1c-.152.035-.455.226-.673.426l-.397.363v-.833h-.798v5.057h.898v-1.492c.001-1.764.081-2.123.567-2.556.326-.29.413-.319.847-.276.935.09 1.079.454 1.08 2.731v1.593h.898v-1.694c-.001-2.19-.181-2.835-.895-3.21-.29-.152-.974-.276-1.15-.209Zm-28.78 1.95c0 1.778.015 1.936.225 2.352.292.579.643.828 1.252.887.613.06 1.114-.1 1.523-.488.172-.163.33-.296.353-.296.021 0 .039.16.039.354 0 .345.01.354.4.354h.401l-.026-2.503-.027-2.503-.424-.031-.424-.031v1.548c0 .852-.044 1.704-.097 1.893-.212.748-.977 1.16-1.637.88-.554-.235-.605-.423-.66-2.439l-.05-1.82-.424-.031-.424-.031v1.906Zm18.555.635v2.528h.898V37.61h-.898v2.529ZM42.419 38.48c.21.192.33.437.446.905l.062.248h-2.705l.111-.329c.273-.809.675-1.11 1.401-1.053.282.023.56.116.685.23Zm5.232.004c.416.277.574.65.62 1.46.077 1.334-.415 2.065-1.389 2.065-.896 0-1.436-.708-1.425-1.87.007-.7.16-1.111.556-1.486.476-.45 1.115-.516 1.638-.169Zm26.64-.102c.21.1.448.345.61.626.527.911.27 2.377-.502 2.853-.38.236-.968.257-1.363.05-.596-.313-.96-1.33-.795-2.222.108-.586.32-.92.79-1.244.39-.27.79-.29 1.26-.063ZM63.535 40.76c-.04.56-.08.655-.41.96-.299.28-.444.34-.808.34-.36 0-.482-.05-.65-.267a1.034 1.034 0 0 1-.098-1.063c.161-.306.864-.587 1.475-.59l.536-.002-.045.622Z" fill="#000" stroke="#273B39" stroke-width="10" mask="url(#a)"/></svg>