<svg width="18" height="18" viewBox="0 0 18 18" fill="none" xmlns="http://www.w3.org/2000/svg">
<path d="M17.7274 0.147305C17.5223 -0.0115297 17.2465 -0.0446818 17.0096 0.0613488L0.413988 7.48297C-0.088066 7.7028 -0.146995 8.41021 0.311496 8.71012L5.83451 12.3855V17.2968C5.83451 17.6008 6.03 17.8705 6.31898 17.9651C6.60332 18.0592 6.92487 17.9593 7.10485 17.7125L9.3132 14.7004L14.0943 17.8821C14.293 18.0144 14.5449 18.0365 14.7629 17.9422C14.9815 17.8478 15.1375 17.6491 15.1773 17.4143L17.9901 0.820614C18.0334 0.564959 17.9325 0.30614 17.7274 0.147305ZM7.24092 15.1484V13.3214L8.1412 13.9205L7.24092 15.1484ZM13.9717 16.1113L7.64301 11.8998L13.7838 5.80775C14.0595 5.53427 14.0612 5.08909 13.7877 4.81339C13.5142 4.53777 13.0689 4.53598 12.7932 4.80952L6.44785 11.1045L2.15242 8.24599L16.3838 1.88173L13.9717 16.1113Z" fill="#273B39"/>
</svg>
